<svg width="146" height="46" viewBox="0 0 146 46" fill="none" xmlns="http://www.w3.org/2000/svg">
<path d="M51.1074 33.0586H144.852" stroke="#1A1919" stroke-width="0.655038"/>
<path fill-rule="evenodd" clip-rule="evenodd" d="M6.62759 0.132812C5.56824 0.132812 4.84504 0.719094 4.80316 1.11603C4.75902 1.55517 5.04083 1.98519 5.42224 2.27947C8.22001 4.45464 0.149268 8.68636 1.14411 17.3049C1.85034 23.4004 8.90587 31.7144 10.3613 31.7144C10.4168 31.7144 10.4643 31.7019 10.5028 31.6779C11.6267 30.9536 7.19462 22.9693 6.18054 20.3344C3.92716 14.4203 7.3293 10.638 8.65575 8.4377C10.3987 5.5428 10.8242 2.80302 9.46271 1.48103C8.42486 0.469297 7.43003 0.132812 6.62759 0.132812Z" fill="#D0232B"/>
<path fill-rule="evenodd" clip-rule="evenodd" d="M26.6077 2.54297C26.5126 2.54297 26.4164 2.54525 26.3191 2.54867C16.0391 3.00834 14.5338 15.5438 14.5089 20.0858C14.5089 20.4747 14.5395 22.464 14.0811 22.464C13.9883 22.464 13.8751 22.3807 13.7359 22.1868C13.2017 21.4272 11.6761 19.2223 11.2211 18.6281C11.0898 18.4593 10.9121 18.3737 10.7378 18.3737C10.3734 18.3737 10.0282 18.749 10.1855 19.5063C10.2659 19.8907 11.2856 24.1726 12.7513 25.9338C13.1723 26.4448 14.1422 27.1668 15.145 27.1668C16.1195 27.1668 17.1267 26.4847 17.6926 24.2628C18.6739 20.8238 17.5093 7.15566 29.221 5.593C30.1468 5.46867 30.5033 4.37595 29.9578 3.73264C29.573 3.27753 28.3959 2.54297 26.6077 2.54297Z" fill="#F2B229"/>
<path fill-rule="evenodd" clip-rule="evenodd" d="M32.8789 14.7995C32.5076 14.6843 32.4918 14.455 32.7646 14.049C33.232 13.3555 35.1436 9.16825 32.7883 6.97027C32.5971 6.79119 32.3481 6.60527 32.0787 6.47638C31.6464 6.26992 31.102 6.48892 31.1088 7.21322C31.1653 12.5228 28.5396 13.5414 24.8658 13.5802H24.429V16.02L27.6817 16.2436L27.7417 16.2493C31.2559 16.5241 33.3723 18.8339 33.3723 21.495C33.3723 24.6956 30.6991 26.7635 27.7428 26.7635C26.7616 26.7635 25.7554 26.5616 24.9417 26.0552C24.7889 25.9594 24.5806 25.8111 24.4199 25.6902C24.4199 26.1031 24.4233 30.896 24.4233 30.896C25.5449 31.4276 26.817 31.7424 28.4627 31.7424C33.1946 31.7424 39.1116 28.2749 39.1116 22.2136C39.1116 19.054 36.4768 15.9219 32.8789 14.7995Z" fill="#07427B"/>
<path fill-rule="evenodd" clip-rule="evenodd" d="M56.7086 23.0944L55.6696 26.7375C55.6278 26.8835 55.5995 27.0135 55.5836 27.1287C55.5678 27.2428 55.5565 27.4299 55.5485 27.6877H55.5021C55.4761 27.4196 55.4535 27.228 55.432 27.1128C55.4116 26.9987 55.3799 26.8732 55.3358 26.7375L54.3896 23.927L53.4468 26.7455C53.4004 26.8755 53.3665 26.9987 53.3461 27.1128C53.3246 27.228 53.3019 27.4196 53.2759 27.6877H53.2295C53.2216 27.4276 53.2103 27.2405 53.1967 27.1287C53.182 27.017 53.1526 26.8858 53.1095 26.7375L52.0694 23.0944H51.1074L52.7757 28.6412H53.594L54.2809 26.425C54.3013 26.3543 54.3183 26.2573 54.333 26.1318C54.3466 26.0064 54.3579 25.8547 54.3658 25.6745L54.4043 25.671C54.4122 25.8501 54.4235 26.003 54.4371 26.1284C54.4518 26.2527 54.47 26.352 54.4937 26.425L55.1841 28.6412H55.9945L57.6706 23.0944H56.7086ZM61.5719 26.198C61.5425 26.1877 61.5153 26.1797 61.4904 26.1752C61.4644 26.1695 61.4327 26.1672 61.3965 26.1672H60.353C60.3201 26.1672 60.2918 26.1695 60.2703 26.1729C60.2477 26.1763 60.2194 26.1855 60.1832 26.198L60.156 26.1592C60.1787 26.141 60.1968 26.1227 60.2104 26.1045C60.2228 26.0862 60.2341 26.0611 60.2443 26.0303L60.7683 24.5099C60.7921 24.4449 60.8102 24.3525 60.8249 24.2338C60.8385 24.1152 60.8487 23.9806 60.8543 23.8289H60.8962C60.9019 23.9806 60.9109 24.1152 60.9256 24.2338C60.9392 24.3525 60.9585 24.4449 60.9822 24.5099L61.4972 26.0303C61.5085 26.0611 61.5198 26.0862 61.5345 26.1045C61.5493 26.1227 61.5685 26.141 61.5945 26.1592L61.5719 26.198ZM61.2686 23.0944H60.482L58.4799 28.6412H59.3875L59.9738 26.9759H61.7847L62.3664 28.6412H63.2707L61.2686 23.0944ZM65.9711 27.7857C65.9225 27.7857 65.8851 27.7903 65.8591 27.7994C65.8331 27.8086 65.807 27.8245 65.781 27.8485L65.7504 27.8165C65.7742 27.7903 65.79 27.7664 65.7991 27.7424C65.8082 27.7185 65.8127 27.6797 65.8127 27.6249V23.0864H64.905V28.6412H67.7016L67.8374 27.7857H65.9711ZM70.5549 27.7857C70.5051 27.7857 70.4677 27.7903 70.4417 27.7994C70.4156 27.8086 70.3896 27.8245 70.3647 27.8485L70.333 27.8165C70.3568 27.7903 70.3726 27.7664 70.3817 27.7424C70.3907 27.7185 70.3953 27.6797 70.3953 27.6249V23.0864H69.4876V28.6412H72.2842L72.42 27.7857H70.5549ZM77.7213 27.3204C77.384 27.6877 76.9381 27.8713 76.3847 27.8713C75.8312 27.8713 75.3864 27.6877 75.048 27.3204C74.7108 26.9531 74.5421 26.4672 74.5421 25.8615C74.5421 25.2604 74.7119 24.7745 75.0526 24.4061C75.3921 24.0377 75.8391 23.8529 76.3926 23.8529C76.9358 23.8529 77.3772 24.0399 77.7168 24.4141C78.0574 24.7882 78.2272 25.2707 78.2272 25.8615C78.2272 26.4672 78.0586 26.9531 77.7213 27.3204ZM78.3664 23.7924C77.8492 23.2563 77.1814 22.9883 76.362 22.9883C75.5675 22.9883 74.9145 23.2597 74.4006 23.8015C73.8868 24.3445 73.631 25.0311 73.631 25.8615C73.631 26.7044 73.888 27.3934 74.4029 27.9317C74.9167 28.4701 75.5777 28.7393 76.3847 28.7393C77.1894 28.7393 77.8492 28.4701 78.3664 27.9317C78.8836 27.3934 79.1428 26.7067 79.1428 25.8695C79.1428 25.0209 78.8836 24.3274 78.3664 23.7924ZM85.4899 23.0944H84.6173V26.5037C84.6173 26.6622 84.6308 26.8265 84.6557 26.9976C84.6818 27.1687 84.7248 27.3751 84.7848 27.6169L84.7452 27.6249C84.6727 27.4139 84.6025 27.236 84.5335 27.09C84.4656 26.944 84.3852 26.8014 84.2913 26.6634L81.8591 23.0944H81.0487V28.6412H81.9259V25.225C81.9259 25.079 81.9146 24.933 81.8931 24.787C81.8704 24.641 81.8263 24.4186 81.7584 24.1186L81.798 24.1107C81.8851 24.3605 81.9576 24.5441 82.013 24.6616C82.0685 24.7791 82.1477 24.9137 82.2518 25.0642L84.6795 28.6412H85.4899V23.0944ZM88.6419 23.0864H87.7376V28.6412H88.6419V23.0864ZM91.9297 27.7857C91.881 27.7857 91.8437 27.7903 91.8177 27.7994C91.7916 27.8086 91.7645 27.8245 91.7362 27.8485L91.709 27.8211C91.7294 27.7915 91.7452 27.7641 91.7554 27.7367C91.7656 27.7093 91.7713 27.6717 91.7713 27.6249V26.401C91.7713 26.3622 91.7656 26.328 91.7554 26.2984C91.7452 26.2676 91.7294 26.2391 91.709 26.2105L91.7396 26.1786C91.769 26.2026 91.7939 26.2174 91.8177 26.2254C91.8414 26.2334 91.8788 26.2391 91.9297 26.2413H93.7881V25.4007H91.9297C91.8833 25.4007 91.8482 25.4041 91.8233 25.4121C91.7984 25.4201 91.7701 25.4372 91.7362 25.4634L91.7056 25.4315C91.7305 25.3927 91.7486 25.3608 91.7577 25.3345C91.7667 25.3083 91.7713 25.2775 91.7713 25.241V24.1107C91.7713 24.0719 91.7656 24.0377 91.7554 24.0069C91.7452 23.9772 91.7294 23.9464 91.709 23.9156L91.7362 23.8837C91.7747 23.9099 91.8075 23.9282 91.8346 23.9373C91.8618 23.9464 91.8935 23.951 91.9297 23.951H94.0563L93.9624 23.0944H90.8862V28.6412H93.9545L94.0563 27.7857H91.9297ZM97.6667 26.2254H95.7619V27.0466H97.6667V26.2254ZM102.2 27.6192C102.026 27.7766 101.785 27.8553 101.475 27.8553H100.742C100.695 27.8553 100.66 27.8599 100.637 27.869C100.614 27.8781 100.586 27.8964 100.552 27.9226L100.52 27.8873C100.549 27.8508 100.566 27.8222 100.573 27.8006C100.579 27.78 100.582 27.7447 100.582 27.6956V26.2642C100.582 26.2254 100.579 26.1946 100.573 26.1706C100.566 26.1478 100.549 26.1147 100.52 26.0737L100.552 26.0383C100.586 26.0645 100.614 26.0817 100.637 26.0908C100.66 26.0999 100.695 26.1045 100.742 26.1045H101.443C101.64 26.1045 101.798 26.1239 101.917 26.1615C102.035 26.1991 102.14 26.2642 102.227 26.3588C102.299 26.4364 102.357 26.5288 102.398 26.6337C102.439 26.7398 102.46 26.8482 102.46 26.9611C102.46 27.2417 102.373 27.4618 102.2 27.6192ZM102.035 25.1726C101.896 25.306 101.699 25.3733 101.443 25.3733H100.734C100.687 25.3733 100.652 25.3779 100.629 25.387C100.606 25.3961 100.578 25.4144 100.544 25.4395L100.513 25.4087C100.515 25.403 100.519 25.3973 100.524 25.3893C100.563 25.3288 100.582 25.2707 100.582 25.2136V24.0205C100.58 23.984 100.574 23.9532 100.565 23.9293C100.556 23.9042 100.538 23.8711 100.513 23.8289L100.544 23.7981C100.574 23.8244 100.601 23.8415 100.625 23.8483C100.649 23.8563 100.684 23.8609 100.734 23.8609H101.339C101.657 23.8609 101.887 23.9202 102.03 24.0388C102.171 24.1574 102.243 24.3411 102.243 24.592C102.243 24.8441 102.173 25.038 102.035 25.1726ZM103.019 26.1341C102.834 25.906 102.581 25.7623 102.258 25.7018V25.6551C102.53 25.5741 102.731 25.4429 102.863 25.2615C102.995 25.0813 103.061 24.8429 103.061 24.5487C103.061 24.0764 102.911 23.7171 102.611 23.4673C102.312 23.2187 101.869 23.0944 101.285 23.0944H99.7481V28.6412H101.4C101.996 28.6412 102.46 28.4872 102.794 28.1781C103.128 27.869 103.294 27.4709 103.294 26.9839C103.294 26.6451 103.202 26.3622 103.019 26.1341ZM107.431 25.2615C107.288 25.3916 107.066 25.4555 106.764 25.4555H106.229C106.179 25.4555 106.143 25.46 106.118 25.4691C106.093 25.4783 106.067 25.4942 106.039 25.5182L106.007 25.4862C106.039 25.4532 106.059 25.4212 106.071 25.3927C106.083 25.3642 106.088 25.3323 106.088 25.2958V24.0251C106.078 23.9783 106.067 23.9407 106.055 23.9133C106.044 23.886 106.027 23.8574 106.007 23.8289L106.039 23.7981C106.071 23.8244 106.1 23.8415 106.123 23.8483C106.147 23.8563 106.181 23.8609 106.229 23.8609H106.764C107.064 23.8609 107.285 23.9247 107.428 24.0536C107.572 24.1825 107.645 24.3833 107.645 24.6536C107.645 24.9308 107.573 25.1327 107.431 25.2615ZM107.357 26.441C107.305 26.3645 107.242 26.2938 107.167 26.2277C107.092 26.1615 107.004 26.0976 106.903 26.0383L106.919 26.0109C106.986 26.0292 107.047 26.0429 107.101 26.052C107.156 26.0611 107.207 26.0657 107.256 26.0657C107.597 26.0657 107.886 25.9288 108.119 25.6573C108.353 25.3847 108.471 25.0505 108.471 24.6536C108.471 24.1483 108.318 23.7628 108.012 23.4947C107.707 23.2278 107.261 23.0944 106.675 23.0944H105.219V28.6412H106.088V26.6873C106.088 26.4786 106.084 26.3246 106.072 26.2254C106.062 26.1261 106.043 26.0121 106.015 25.882L106.053 25.8695C106.097 25.987 106.143 26.0885 106.188 26.1729C106.233 26.2573 106.308 26.3759 106.414 26.5265L107.827 28.6412H108.811L107.357 26.441ZM114.743 23.0944H113.84V26.3041C113.84 26.8356 113.734 27.2325 113.521 27.4937C113.309 27.7561 112.989 27.8873 112.56 27.8873C112.13 27.8873 111.809 27.7561 111.598 27.4937C111.385 27.2325 111.28 26.8356 111.28 26.3041V23.0944H110.376V26.214C110.376 26.6725 110.421 27.0466 110.511 27.3363C110.602 27.6249 110.741 27.869 110.93 28.0663C111.137 28.2853 111.381 28.4542 111.661 28.5716C111.942 28.688 112.241 28.7473 112.56 28.7473C112.878 28.7473 113.177 28.688 113.457 28.5716C113.738 28.4542 113.981 28.2853 114.188 28.0663C114.377 27.869 114.517 27.6249 114.607 27.3363C114.698 27.0466 114.743 26.6725 114.743 26.214V23.0944ZM119.036 25.9436C119.01 25.8946 118.988 25.8627 118.971 25.8478C118.956 25.8341 118.933 25.8227 118.903 25.8147V25.784C118.933 25.776 118.956 25.7646 118.971 25.7509C118.988 25.736 119.01 25.7041 119.036 25.6551L120.482 23.0944H119.49L118.664 24.6536C118.597 24.7791 118.552 24.8806 118.528 24.9593C118.504 25.0368 118.486 25.1623 118.473 25.3345H118.435C118.421 25.1726 118.403 25.0505 118.378 24.9684C118.353 24.8863 118.308 24.7813 118.24 24.6536L117.414 23.0944H116.422L117.861 25.6551C117.884 25.6961 117.905 25.7269 117.924 25.7452C117.944 25.7634 117.968 25.776 117.996 25.784V25.8147C117.968 25.8227 117.944 25.8364 117.924 25.8547C117.905 25.8729 117.884 25.9026 117.861 25.9436L116.367 28.6412H117.368L118.24 26.9531C118.318 26.8014 118.368 26.6862 118.39 26.6052C118.412 26.5242 118.427 26.4136 118.435 26.2721H118.473C118.486 26.4318 118.504 26.5505 118.525 26.6303C118.548 26.7101 118.593 26.8174 118.664 26.9531L119.536 28.6412H120.537L119.036 25.9436ZM123.29 27.7857C123.24 27.7857 123.203 27.7903 123.177 27.7994C123.151 27.8086 123.124 27.8245 123.096 27.8485L123.068 27.8211C123.09 27.7915 123.105 27.7641 123.115 27.7367C123.126 27.7093 123.131 27.6717 123.131 27.6249V26.401C123.131 26.3622 123.126 26.328 123.115 26.2984C123.105 26.2676 123.09 26.2391 123.068 26.2105L123.1 26.1786C123.128 26.2026 123.154 26.2174 123.177 26.2254C123.201 26.2334 123.238 26.2391 123.29 26.2413H125.148V25.4007H123.29C123.244 25.4007 123.208 25.4041 123.183 25.4121C123.159 25.4201 123.13 25.4372 123.096 25.4634L123.065 25.4315C123.091 25.3927 123.108 25.3608 123.117 25.3345C123.126 25.3083 123.131 25.2775 123.131 25.241V24.1107C123.131 24.0719 123.126 24.0377 123.115 24.0069C123.105 23.9772 123.09 23.9464 123.068 23.9156L123.096 23.8837C123.135 23.9099 123.168 23.9282 123.195 23.9373C123.222 23.9464 123.254 23.951 123.29 23.951H125.416L125.323 23.0944H122.247V28.6412H125.315L125.416 27.7857H123.29ZM128.446 27.7857C128.396 27.7857 128.358 27.7903 128.332 27.7994C128.306 27.8086 128.28 27.8245 128.255 27.8485L128.224 27.8165C128.247 27.7903 128.263 27.7664 128.272 27.7424C128.281 27.7185 128.286 27.6797 128.286 27.6249V23.0864H127.378V28.6412H130.175L130.311 27.7857H128.446ZM133.028 27.7857C132.978 27.7857 132.941 27.7903 132.915 27.7994C132.889 27.8086 132.864 27.8245 132.838 27.8485L132.806 27.8165C132.83 27.7903 132.846 27.7664 132.855 27.7424C132.864 27.7185 132.869 27.6797 132.869 27.6249V23.0864H131.961V28.6412H134.758L134.893 27.7857H133.028ZM137.576 27.7857C137.527 27.7857 137.49 27.7903 137.464 27.7994C137.438 27.8086 137.41 27.8245 137.382 27.8485L137.355 27.8211C137.375 27.7915 137.391 27.7641 137.401 27.7367C137.412 27.7093 137.417 27.6717 137.417 27.6249V26.401C137.417 26.3622 137.412 26.328 137.401 26.2984C137.391 26.2676 137.375 26.2391 137.355 26.2105L137.386 26.1786C137.415 26.2026 137.44 26.2174 137.464 26.2254C137.486 26.2334 137.525 26.2391 137.576 26.2413H139.434V25.4007H137.576C137.529 25.4007 137.494 25.4041 137.469 25.4121C137.444 25.4201 137.416 25.4372 137.382 25.4634L137.352 25.4315C137.376 25.3927 137.395 25.3608 137.404 25.3345C137.413 25.3083 137.417 25.2775 137.417 25.241V24.1107C137.417 24.0719 137.412 24.0377 137.401 24.0069C137.391 23.9772 137.375 23.9464 137.355 23.9156L137.382 23.8837C137.421 23.9099 137.453 23.9282 137.481 23.9373C137.508 23.9464 137.539 23.951 137.576 23.951H139.701L139.608 23.0944H136.532V28.6412H139.6L139.701 27.7857H137.576ZM144.497 26.1569C144.288 25.8957 143.886 25.6049 143.289 25.2878L143.156 25.2136C142.841 25.0494 142.63 24.9114 142.523 24.7985C142.415 24.6867 142.362 24.5475 142.362 24.381C142.362 24.1768 142.421 24.024 142.539 23.9213C142.656 23.8187 142.832 23.7662 143.067 23.7662C143.262 23.7662 143.433 23.8027 143.58 23.8745C143.727 23.9464 143.866 24.0627 143.999 24.2236L144.607 23.6453L144.545 23.5825C144.354 23.3898 144.132 23.2426 143.88 23.1411C143.628 23.0396 143.357 22.9883 143.067 22.9883C142.586 22.9883 142.206 23.116 141.925 23.3704C141.644 23.6236 141.504 23.9704 141.504 24.4084C141.504 24.5874 141.529 24.7505 141.578 24.8965C141.627 25.0425 141.702 25.1749 141.803 25.2958C141.912 25.4235 142.058 25.5524 142.241 25.6824C142.425 25.8125 142.657 25.9528 142.939 26.1045L143.075 26.1752C143.427 26.3622 143.659 26.5311 143.771 26.6793C143.884 26.8276 143.941 26.9987 143.941 27.1915C143.941 27.4287 143.866 27.6158 143.717 27.7538C143.568 27.8918 143.365 27.9614 143.107 27.9614C142.892 27.9614 142.694 27.9124 142.512 27.8131C142.331 27.7139 142.13 27.5439 141.908 27.3044L141.311 27.9226L141.368 27.9774C141.64 28.2511 141.913 28.4473 142.187 28.5671C142.462 28.6868 142.773 28.7473 143.121 28.7473C143.642 28.7473 144.053 28.607 144.355 28.3264C144.658 28.047 144.809 27.6626 144.809 27.1755C144.809 26.7592 144.705 26.4193 144.497 26.1569Z" fill="#1A1919"/>
<path fill-rule="evenodd" clip-rule="evenodd" d="M56.7494 8.93747H51.1074V19.0354H52.7598V14.9577C52.7598 14.8721 52.7519 14.8071 52.7349 14.7615C52.7191 14.717 52.6897 14.6634 52.6466 14.6018L52.7032 14.5448C52.7644 14.5927 52.8164 14.6246 52.8594 14.6406C52.9013 14.6577 52.9647 14.6657 53.0496 14.6657H56.403V13.1361H53.0213C52.9183 13.1361 52.847 13.143 52.8096 13.1566C52.7723 13.1715 52.7247 13.2 52.6682 13.2422L52.6116 13.1931C52.6727 13.1213 52.7134 13.062 52.7315 13.0152C52.7508 12.9673 52.7598 12.9103 52.7598 12.8441V10.8024C52.7417 10.702 52.7225 10.6313 52.7032 10.588C52.6851 10.5457 52.6546 10.5001 52.6116 10.4534L52.6749 10.3963C52.7361 10.4442 52.7881 10.475 52.8311 10.4887C52.873 10.5024 52.9364 10.5104 53.0213 10.5104H57.0108L56.7494 8.93747ZM61.9239 17.4762C61.8345 17.4762 61.7666 17.4853 61.7202 17.5013C61.6726 17.5184 61.6228 17.548 61.5719 17.5902L61.5221 17.5401C61.5594 17.4887 61.5877 17.4374 61.607 17.3872C61.6251 17.3382 61.6353 17.2697 61.6353 17.1842V14.9577C61.6353 14.8858 61.6251 14.8231 61.607 14.7695C61.5877 14.7147 61.5594 14.6611 61.5221 14.6087L61.5787 14.5516C61.6296 14.595 61.6771 14.6235 61.7202 14.6372C61.762 14.652 61.8299 14.6611 61.9239 14.6657H65.3068V13.1361H61.9239C61.8401 13.1361 61.7745 13.143 61.7303 13.1566C61.6851 13.1715 61.633 13.2023 61.5719 13.2502L61.5153 13.1931C61.5617 13.1213 61.5934 13.062 61.6104 13.0152C61.6262 12.9673 61.6353 12.9103 61.6353 12.8441V10.7876C61.6353 10.7168 61.6251 10.6541 61.607 10.5994C61.5877 10.5446 61.5594 10.4887 61.5221 10.4317L61.5719 10.3747C61.6421 10.4226 61.702 10.4545 61.7518 10.4705C61.8005 10.4876 61.8582 10.4956 61.9239 10.4956H65.7934L65.6237 8.93747H60.0247V19.0354H65.6101L65.7934 17.4762H61.9239ZM62.2985 5.82812L61.607 7.7843H62.8214L64.1207 5.82812H62.2985ZM74.601 16.526C73.9129 17.1887 73.0402 17.5195 71.9809 17.5195H71.1898C71.0958 17.5195 71.0279 17.5264 70.9861 17.5401C70.9431 17.5549 70.8955 17.5857 70.8446 17.6336L70.7812 17.5766C70.8321 17.5241 70.865 17.4762 70.8797 17.434C70.8933 17.3906 70.9012 17.3222 70.9012 17.2275V10.7454C70.9012 10.6735 70.8921 10.6142 70.8763 10.5674C70.8593 10.5195 70.8276 10.4625 70.7812 10.3963L70.8446 10.3325C70.9057 10.3792 70.9578 10.4112 70.9996 10.4283C71.0415 10.4454 71.106 10.4534 71.1898 10.4534H72.059C73.0844 10.4534 73.9366 10.7864 74.6146 11.4525C75.2925 12.1198 75.6309 12.965 75.6309 13.9893C75.6309 15.0193 75.288 15.8645 74.601 16.526ZM75.752 10.361C74.7538 9.41197 73.4873 8.93747 71.9526 8.93747H69.2624V19.0354H71.896C73.4828 19.0354 74.7707 18.5586 75.7622 17.6051C76.7525 16.6515 77.2482 15.4459 77.2482 13.9893C77.2482 12.519 76.7491 11.31 75.752 10.361ZM82.4759 17.4762C82.3865 17.4762 82.3186 17.4853 82.2722 17.5013C82.2247 17.5184 82.1749 17.548 82.1239 17.5902L82.0741 17.5401C82.1115 17.4887 82.1398 17.4374 82.159 17.3872C82.1771 17.3382 82.1873 17.2697 82.1873 17.1842V14.9577C82.1873 14.8858 82.1771 14.8231 82.159 14.7695C82.1398 14.7147 82.1115 14.6611 82.0741 14.6087L82.1307 14.5516C82.1817 14.595 82.2292 14.6235 82.2722 14.6372C82.3141 14.652 82.382 14.6611 82.4759 14.6657H85.8588V13.1361H82.4759C82.3922 13.1361 82.3265 13.143 82.2824 13.1566C82.2371 13.1715 82.1851 13.2023 82.1239 13.2502L82.0674 13.1931C82.1138 13.1213 82.1454 13.062 82.1624 13.0152C82.1783 12.9673 82.1873 12.9103 82.1873 12.8441V10.7876C82.1873 10.7168 82.1771 10.6541 82.159 10.5994C82.1398 10.5446 82.1115 10.4887 82.0741 10.4317L82.1239 10.3747C82.1941 10.4226 82.2541 10.4545 82.3039 10.4705C82.3526 10.4876 82.4103 10.4956 82.4759 10.4956H86.3455L86.1757 8.93747H80.5768V19.0354H86.1621L86.3455 17.4762H82.4759ZM82.8505 5.82812L82.159 7.7843H83.3734L84.6727 5.82812H82.8505ZM93.8266 12.8829C93.5685 13.1179 93.1634 13.2353 92.6122 13.2353H91.6377C91.5483 13.2353 91.4815 13.2433 91.4374 13.2604C91.3921 13.2775 91.3434 13.3061 91.2925 13.3494L91.2359 13.2924C91.2925 13.2308 91.331 13.1737 91.3525 13.1213C91.3729 13.07 91.3842 13.0106 91.3842 12.9433V10.6313C91.3649 10.5457 91.3457 10.4785 91.3242 10.4283C91.3027 10.3781 91.2733 10.3279 91.2359 10.2754L91.2925 10.2184C91.3536 10.2663 91.4057 10.2971 91.4476 10.3108C91.4894 10.3256 91.554 10.3325 91.6377 10.3325H92.6122C93.1588 10.3325 93.5617 10.4499 93.8232 10.6849C94.0846 10.9187 94.2159 11.2837 94.2159 11.7765C94.2159 12.2795 94.0858 12.6479 93.8266 12.8829ZM93.693 15.0284C93.5991 14.8915 93.4836 14.7615 93.3467 14.6406C93.2097 14.5197 93.0502 14.4045 92.8668 14.2961L92.8951 14.2459C93.0174 14.279 93.1283 14.3041 93.2267 14.3201C93.3252 14.3372 93.4203 14.3452 93.5097 14.3452C94.131 14.3452 94.6539 14.0977 95.0806 13.6015C95.5061 13.1065 95.7189 12.4974 95.7189 11.7765C95.7189 10.856 95.4416 10.1534 94.8859 9.66633C94.3302 9.18042 93.5187 8.93747 92.4503 8.93747H89.802V19.0354H91.3842V15.4767C91.3842 15.098 91.374 14.8174 91.3559 14.6372C91.3367 14.457 91.3016 14.2482 91.2495 14.011L91.3208 13.9893C91.4 14.2037 91.4815 14.3874 91.5641 14.5414C91.6468 14.6953 91.7837 14.9098 91.9772 15.1847L94.5475 19.0354H96.3403L93.693 15.0284ZM104.444 14.587C104.393 14.5687 104.343 14.5539 104.296 14.5448C104.249 14.5357 104.193 14.5311 104.127 14.5311H102.228C102.166 14.5311 102.116 14.5345 102.075 14.5414C102.035 14.5482 101.982 14.5642 101.917 14.587L101.867 14.5163C101.91 14.4832 101.943 14.4501 101.966 14.417C101.989 14.384 102.01 14.3383 102.03 14.2813L102.983 11.513C103.025 11.3944 103.06 11.2278 103.086 11.0123C103.111 10.7955 103.129 10.5503 103.138 10.2754H103.216C103.225 10.5503 103.243 10.7955 103.269 11.0123C103.295 11.2278 103.329 11.3944 103.371 11.513L104.31 14.2813C104.328 14.3383 104.351 14.384 104.377 14.417C104.403 14.4501 104.439 14.4832 104.487 14.5163L104.444 14.587ZM103.894 8.93747H102.46L98.8166 19.0354H100.469L101.535 16.0036H104.833L105.891 19.0354H107.537L103.894 8.93747ZM114.897 8.93747H108.966L108.755 10.4534H110.83C110.92 10.4534 110.988 10.4454 111.035 10.4283C111.082 10.4112 111.129 10.3815 111.177 10.3393L111.24 10.3963C111.188 10.4716 111.155 10.5332 111.141 10.5777C111.127 10.6233 111.12 10.6781 111.12 10.7454V19.0354H112.743V10.7454C112.743 10.6689 112.735 10.6062 112.719 10.556C112.702 10.507 112.673 10.4511 112.631 10.3895L112.688 10.3325C112.749 10.3792 112.8 10.4112 112.843 10.4283C112.885 10.4454 112.948 10.4534 113.033 10.4534H115.117L114.897 8.93747ZM119.755 8.92378H118.109V19.0354H119.755V8.92378ZM130.68 16.6298C130.066 17.2982 129.255 17.6336 128.247 17.6336C127.24 17.6336 126.43 17.2982 125.815 16.6298C125.201 15.9603 124.894 15.0763 124.894 13.9756C124.894 12.8795 125.203 11.9966 125.822 11.3248C126.441 10.6541 127.255 10.3176 128.262 10.3176C129.25 10.3176 130.054 10.6587 130.673 11.3396C131.292 12.0194 131.601 12.8989 131.601 13.9756C131.601 15.0763 131.294 15.9603 130.68 16.6298ZM131.856 10.2081C130.914 9.23289 129.697 8.74584 128.206 8.74584C126.76 8.74584 125.571 9.23859 124.636 10.2252C123.701 11.2119 123.235 12.462 123.235 13.9756C123.235 15.5075 123.703 16.7633 124.639 17.7431C125.576 18.7229 126.778 19.2122 128.247 19.2122C129.712 19.2122 130.914 18.7229 131.856 17.7431C132.797 16.7633 133.268 15.512 133.268 13.9893C133.268 12.4437 132.797 11.1822 131.856 10.2081ZM144.725 8.93747H143.136V15.1425C143.136 15.4322 143.16 15.7322 143.207 16.0424C143.254 16.3538 143.332 16.7291 143.441 17.1705L143.369 17.1842C143.238 16.8009 143.109 16.4759 142.984 16.2101C142.86 15.9443 142.713 15.6854 142.543 15.4345L138.117 8.93747H136.641V19.0354H138.237V12.8156C138.237 12.5498 138.216 12.2841 138.177 12.0183C138.136 11.7525 138.056 11.3476 137.933 10.8024L138.003 10.7876C138.163 11.2427 138.294 11.578 138.395 11.7913C138.497 12.0046 138.641 12.2487 138.83 12.5236L143.249 19.0354H144.725V8.93747Z" fill="#1A1919"/>
<path fill-rule="evenodd" clip-rule="evenodd" d="M52.2094 42.9326C52.1596 42.9326 52.1211 42.9371 52.0939 42.9463C52.0679 42.9554 52.0407 42.9714 52.0147 42.9953L51.983 42.9634C52.0068 42.9383 52.0237 42.9132 52.0328 42.8904C52.0419 42.8664 52.0464 42.8276 52.0464 42.7729V38.2617H51.1172V43.7835H53.9806L54.1198 42.9326H52.2094ZM56.7976 42.9326C56.7467 42.9326 56.7082 42.9371 56.6822 42.9463C56.6561 42.9554 56.6278 42.9714 56.5984 42.9953L56.5713 42.9679C56.5916 42.9394 56.6075 42.9109 56.6188 42.8835C56.629 42.8573 56.6346 42.8196 56.6346 42.7729V41.557C56.6346 41.5182 56.629 41.484 56.6188 41.4543C56.6075 41.4247 56.5916 41.395 56.5713 41.3665L56.6029 41.3357C56.6324 41.3585 56.6584 41.3745 56.6822 41.3825C56.7059 41.3893 56.7444 41.395 56.7976 41.3973H58.7001V40.5624H56.7976C56.7501 40.5624 56.7127 40.5658 56.6878 40.5738C56.6629 40.5817 56.6335 40.5989 56.5984 40.6239L56.5667 40.5932C56.5939 40.5544 56.6109 40.5224 56.621 40.4962C56.6301 40.47 56.6346 40.4392 56.6346 40.4027V39.2792C56.6346 39.2404 56.629 39.2062 56.6188 39.1765C56.6075 39.1468 56.5916 39.116 56.5713 39.0852L56.5984 39.0545C56.638 39.0795 56.672 39.0978 56.7003 39.1069C56.7274 39.116 56.7603 39.1206 56.7976 39.1206H58.974L58.879 38.2697H55.7292V43.7835H58.871L58.974 42.9326H56.7976ZM65.844 40.3833C65.6991 40.5133 65.484 40.5772 65.1977 40.5772H64.6262C64.5786 40.5772 64.5424 40.5817 64.5186 40.5897C64.4949 40.5966 64.4654 40.6137 64.4315 40.6399L64.4032 40.6046C64.4564 40.5373 64.4824 40.4757 64.4824 40.4186V39.1982C64.47 39.1434 64.4575 39.1058 64.4473 39.083C64.436 39.0613 64.4202 39.0362 64.3998 39.0077L64.4315 38.9769C64.4654 39.002 64.4949 39.0191 64.5186 39.0271C64.5424 39.0351 64.5786 39.0385 64.6262 39.0385H65.1819C65.4739 39.0385 65.6923 39.1024 65.8394 39.2312C65.9866 39.359 66.0601 39.5506 66.0601 39.8038C66.0601 40.0605 65.9877 40.2532 65.844 40.3833ZM66.4336 38.6655C66.1178 38.4009 65.681 38.2697 65.123 38.2697H63.5928V43.7835H64.4824V41.4988C64.4858 41.4885 64.4869 41.4794 64.4892 41.4737C64.4903 41.4669 64.4903 41.4543 64.4903 41.4361C64.4881 41.4133 64.4824 41.3916 64.4734 41.3699C64.4632 41.3494 64.4507 41.33 64.4349 41.3117L64.4745 41.2775C64.5039 41.3026 64.53 41.3197 64.5526 41.3277C64.5752 41.3357 64.6114 41.3391 64.6612 41.3391H65.1309C65.6787 41.3391 66.1122 41.2 66.4291 40.9216C66.7471 40.6433 66.9067 40.2658 66.9067 39.789C66.9067 39.3042 66.7482 38.9301 66.4336 38.6655ZM70.8578 41.3551C70.8283 41.3448 70.8 41.3368 70.774 41.3311C70.748 41.3266 70.7163 41.3232 70.6789 41.3232H69.6105C69.5754 41.3232 69.5471 41.3254 69.5245 41.33C69.5019 41.3334 69.4725 41.3414 69.4351 41.3551L69.4079 41.3163C69.4317 41.2981 69.4498 41.2798 69.4634 41.2616C69.4758 41.2433 69.4883 41.2182 69.4985 41.1874L70.0349 39.6761C70.0587 39.6111 70.078 39.5198 70.0927 39.4023C70.1074 39.2837 70.1176 39.1503 70.1221 38.9997H70.1662C70.1719 39.1503 70.1809 39.2837 70.1957 39.4023C70.2104 39.5198 70.2296 39.6111 70.2534 39.6761L70.7819 41.1874C70.7921 41.2182 70.8057 41.2433 70.8193 41.2616C70.834 41.2798 70.8544 41.2981 70.8815 41.3163L70.8578 41.3551ZM70.5476 38.2697H69.7407L67.691 43.7835H68.6213L69.2212 42.1284H71.0762L71.6715 43.7835H72.5973L70.5476 38.2697ZM76.4533 40.4243C76.3073 40.5521 76.0798 40.616 75.7697 40.616H75.2219C75.171 40.616 75.1336 40.6205 75.1087 40.6297C75.0838 40.6388 75.0567 40.6547 75.0272 40.6787L74.9956 40.6479C75.0272 40.6137 75.0487 40.5829 75.0612 40.5544C75.0725 40.5259 75.0793 40.4939 75.0793 40.4574V39.1936C75.068 39.148 75.0567 39.1103 75.0454 39.083C75.0329 39.0556 75.0171 39.0282 74.9956 38.9997L75.0272 38.9689C75.0612 38.9951 75.0906 39.0111 75.1144 39.0191C75.1382 39.0271 75.1744 39.0305 75.2219 39.0305H75.7697C76.0775 39.0305 76.3039 39.0955 76.451 39.2233C76.5982 39.351 76.6717 39.5506 76.6717 39.8198C76.6717 40.0947 76.5993 40.2955 76.4533 40.4243ZM76.3775 41.5958C76.3243 41.5205 76.2598 41.4498 76.1828 41.3836C76.1058 41.3174 76.0164 41.2547 75.9134 41.1954L75.9293 41.168C75.9972 41.1863 76.0594 41.2 76.116 41.2091C76.1715 41.2182 76.2247 41.2228 76.2745 41.2228C76.6242 41.2228 76.9184 41.087 77.1584 40.8167C77.3983 40.5464 77.5183 40.2133 77.5183 39.8198C77.5183 39.3168 77.3621 38.9335 77.0486 38.6678C76.7362 38.402 76.2801 38.2697 75.6791 38.2697H74.1886V43.7835H75.0793V41.841C75.0793 41.6334 75.0736 41.4806 75.0623 41.3825C75.0521 41.2832 75.0329 41.1692 75.0035 41.0403L75.0431 41.0289C75.0884 41.1452 75.1336 41.2456 75.18 41.33C75.2264 41.4133 75.3034 41.5307 75.412 41.6813L76.8585 43.7835H77.868L76.3775 41.5958ZM80.6364 42.9326C80.5854 42.9326 80.5481 42.9371 80.5209 42.9463C80.4949 42.9554 80.4677 42.9714 80.4417 42.9953L80.41 42.9634C80.4338 42.9383 80.4507 42.9132 80.4598 42.8904C80.4689 42.8664 80.4734 42.8276 80.4734 42.7729V38.2617H79.5442V43.7835H82.4076L82.5468 42.9326H80.6364ZM85.2246 42.9326C85.1737 42.9326 85.1352 42.9371 85.1092 42.9463C85.0831 42.9554 85.0548 42.9714 85.0254 42.9953L84.9983 42.9679C85.0186 42.9394 85.0345 42.9109 85.0458 42.8835C85.056 42.8573 85.0616 42.8196 85.0616 42.7729V41.557C85.0616 41.5182 85.056 41.484 85.0458 41.4543C85.0345 41.4247 85.0186 41.395 84.9983 41.3665L85.0299 41.3357C85.0582 41.3585 85.0854 41.3745 85.1092 41.3825C85.1329 41.3893 85.1714 41.395 85.2246 41.3973H87.1271V40.5624H85.2246C85.1771 40.5624 85.1397 40.5658 85.1148 40.5738C85.0899 40.5817 85.0605 40.5989 85.0254 40.6239L84.9937 40.5932C85.0209 40.5544 85.0379 40.5224 85.048 40.4962C85.0571 40.47 85.0616 40.4392 85.0616 40.4027V39.2792C85.0616 39.2404 85.056 39.2062 85.0458 39.1765C85.0345 39.1468 85.0186 39.116 84.9983 39.0852L85.0254 39.0545C85.065 39.0795 85.099 39.0978 85.1273 39.1069C85.1544 39.116 85.1873 39.1206 85.2246 39.1206H87.401L87.306 38.2697H84.1562V43.7835H87.298L87.401 42.9326H85.2246ZM94.8572 38.2697H94.0265L92.3424 41.0791C92.2575 41.2182 92.2021 41.3266 92.176 41.403C92.1489 41.4794 92.1296 41.5958 92.116 41.7509L92.0764 41.7554C92.0628 41.5992 92.0425 41.4828 92.0142 41.4053C91.987 41.3277 91.9304 41.2182 91.8455 41.0791L90.1694 38.2697H89.3307V43.7835H90.2135V40.4027C90.2135 40.2555 90.1999 40.1004 90.1739 39.9384C90.1467 39.7765 90.0992 39.5597 90.0302 39.2871L90.0743 39.2723C90.1558 39.5175 90.2294 39.7183 90.295 39.8723C90.3595 40.0263 90.4319 40.1711 90.5112 40.3057L92.1002 42.9714L93.6768 40.3057C93.8069 40.0901 93.9552 39.7479 94.1227 39.2792L94.1261 39.2723L94.1657 39.2871C94.1498 39.3499 94.1306 39.4309 94.1057 39.5324C94.0106 39.9282 93.9631 40.219 93.9631 40.4027V43.7835H94.8572V38.2697ZM98.119 42.9326C98.0692 42.9326 98.0307 42.9371 98.0047 42.9463C97.9775 42.9554 97.9504 42.9714 97.921 42.9953L97.8927 42.9679C97.9142 42.9394 97.93 42.9109 97.9413 42.8835C97.9515 42.8573 97.9572 42.8196 97.9572 42.7729V41.557C97.9572 41.5182 97.9515 41.484 97.9413 41.4543C97.93 41.4247 97.9142 41.395 97.8927 41.3665L97.9255 41.3357C97.9538 41.3585 97.9809 41.3745 98.0047 41.3825C98.0285 41.3893 98.067 41.395 98.119 41.3973H100.023V40.5624H98.119C98.0715 40.5624 98.0353 40.5658 98.0104 40.5738C97.9855 40.5817 97.9549 40.5989 97.921 40.6239L97.8893 40.5932C97.9153 40.5544 97.9334 40.5224 97.9425 40.4962C97.9515 40.47 97.9572 40.4392 97.9572 40.4027V39.2792C97.9572 39.2404 97.9515 39.2062 97.9413 39.1765C97.93 39.1468 97.9142 39.116 97.8927 39.0852L97.921 39.0545C97.9606 39.0795 97.9945 39.0978 98.0217 39.1069C98.05 39.116 98.0828 39.1206 98.119 39.1206H100.297L100.201 38.2697H97.0506V43.7835H100.194L100.297 42.9326H98.119ZM106.775 38.2697H105.881V41.6574C105.881 41.8159 105.894 41.9801 105.922 42.149C105.948 42.3189 105.991 42.5242 106.052 42.766L106.012 42.7729C105.939 42.563 105.866 42.3862 105.796 42.2414C105.726 42.0954 105.643 41.9551 105.548 41.817L103.057 38.2697H102.226V43.7835H103.124V40.3867C103.124 40.2418 103.114 40.097 103.091 39.9521C103.068 39.8073 103.022 39.5848 102.954 39.2871L102.994 39.2792C103.083 39.5278 103.157 39.7114 103.213 39.8278C103.271 39.9441 103.352 40.0776 103.458 40.2282L105.945 43.7835H106.775V38.2697ZM111.869 38.2697H108.533L108.413 39.0967H109.581C109.632 39.0967 109.67 39.0921 109.696 39.083C109.723 39.0738 109.749 39.0579 109.775 39.0351L109.811 39.0659C109.782 39.1069 109.764 39.14 109.756 39.1651C109.748 39.189 109.744 39.2198 109.744 39.2563V43.7835H110.658V39.2563C110.658 39.2153 110.652 39.1799 110.643 39.1537C110.634 39.1263 110.617 39.0955 110.594 39.0624L110.625 39.0305C110.66 39.0567 110.69 39.0738 110.714 39.083C110.737 39.0921 110.772 39.0967 110.82 39.0967H111.992L111.869 38.2697Z" fill="#1A1919"/>
</svg>
